<svg xmlns="http://www.w3.org/2000/svg" width="18" height="17" viewBox="0 0 18 17"><defs><linearGradient id="u7jqa" x1="8.93" x2="9.68" y1="16.41" y2=".19" gradientUnits="userSpaceOnUse"><stop offset="0" stop-opacity=".13"/><stop offset="1" stop-opacity="0"/></linearGradient><filter id="u7jqb" width="200%" height="200%" x="-50%" y="-50%"><feGaussianBlur in="SourceGraphic" result="FeGaussianBlur1066Out" stdDeviation="0.5 0.5"/></filter><mask id="u7jqc"><path fill="#fff" d="M8.128.845A7.373 7.373 0 0 1 9.353.744c4.134 0 7.486 3.376 7.486 7.54 0 .066 0 .133-.003.199l.049.105c.636.822 1.046 1.855 1.046 2.977 0 2.673-2.271 4.84-4.925 4.84-1.533.018-2.382-.636-2.382-.636l-.071-.04s-.835.096-1.2.096c-4.135 0-7.486-3.376-7.486-7.54 0-.107.044-.232.044-.232C1.274 7.231.679 6.2.679 5.077c0-2.674 2.367-4.889 5.02-4.889.867 0 1.68.28 2.383.684zM6.76 3.919c-.895.554-1.486 1.398-1.486 2.313 0 1.012.573 1.724 1.36 2.14a6.97 6.97 0 0 0 2.599.758c1.05.092 1.722.46 1.982.851.26.39.26.782 0 1.173s-.879.628-1.928.628c-1.26-.091-2.207-.582-2.731-1.135 0 0-.551-.593-1.237.013-.817.677-.176 1.295-.176 1.295.525.46.993.9 1.728 1.177.734.276 1.65.413 2.747.413 1.155 0 2.167-.298 3.035-.896.87-.599 1.303-1.311 1.303-2.14 0-1.057-.406-1.828-1.22-2.31a6.397 6.397 0 0 0-2.716-.863c-.945-.138-1.68-.4-1.943-.675-.262-.276-.316-.882-.054-1.273.263-.39.908-.694 2.033-.568.855.18 1.41.602 2.042 1.063 0 0 .643.27 1.072-.266.509-.705-.013-1.24-.013-1.24s-.447-.606-1.05-.835c-.604-.23-1.455-.527-2.552-.527-.944 0-1.9.35-2.795.904z"/></mask></defs><g><g opacity=".7"><path fill="#614261" d="M8.128.845A7.373 7.373 0 0 1 9.353.744c4.134 0 7.486 3.376 7.486 7.54 0 .066 0 .133-.003.199l.049.105c.636.822 1.046 1.855 1.046 2.977 0 2.673-2.271 4.84-4.925 4.84-1.533.018-2.382-.636-2.382-.636l-.071-.04s-.835.096-1.2.096c-4.135 0-7.486-3.376-7.486-7.54 0-.107.044-.232.044-.232C1.274 7.231.679 6.2.679 5.077c0-2.674 2.367-4.889 5.02-4.889.867 0 1.68.28 2.383.684zM6.76 3.919c-.895.554-1.486 1.398-1.486 2.313 0 1.012.573 1.724 1.36 2.14a6.97 6.97 0 0 0 2.599.758c1.05.092 1.722.46 1.982.851.26.39.26.782 0 1.173s-.879.628-1.928.628c-1.26-.091-2.207-.582-2.731-1.135 0 0-.551-.593-1.237.013-.817.677-.176 1.295-.176 1.295.525.46.993.9 1.728 1.177.734.276 1.65.413 2.747.413 1.155 0 2.167-.298 3.035-.896.87-.599 1.303-1.311 1.303-2.14 0-1.057-.406-1.828-1.22-2.31a6.397 6.397 0 0 0-2.716-.863c-.945-.138-1.68-.4-1.943-.675-.262-.276-.316-.882-.054-1.273.263-.39.908-.694 2.033-.568.855.18 1.41.602 2.042 1.063 0 0 .643.27 1.072-.266.509-.705-.013-1.24-.013-1.24s-.447-.606-1.05-.835c-.604-.23-1.455-.527-2.552-.527-.944 0-1.9.35-2.795.904z"/><path fill="url(#u7jqa)" d="M8.128.845A7.373 7.373 0 0 1 9.353.744c4.134 0 7.486 3.376 7.486 7.54 0 .066 0 .133-.003.199l.049.105c.636.822 1.046 1.855 1.046 2.977 0 2.673-2.271 4.84-4.925 4.84-1.533.018-2.382-.636-2.382-.636l-.071-.04s-.835.096-1.2.096c-4.135 0-7.486-3.376-7.486-7.54 0-.107.044-.232.044-.232C1.274 7.231.679 6.2.679 5.077c0-2.674 2.367-4.889 5.02-4.889.867 0 1.68.28 2.383.684zM6.76 3.919c-.895.554-1.486 1.398-1.486 2.313 0 1.012.573 1.724 1.36 2.14a6.97 6.97 0 0 0 2.599.758c1.05.092 1.722.46 1.982.851.26.39.26.782 0 1.173s-.879.628-1.928.628c-1.26-.091-2.207-.582-2.731-1.135 0 0-.551-.593-1.237.013-.817.677-.176 1.295-.176 1.295.525.46.993.9 1.728 1.177.734.276 1.65.413 2.747.413 1.155 0 2.167-.298 3.035-.896.87-.599 1.303-1.311 1.303-2.14 0-1.057-.406-1.828-1.22-2.31a6.397 6.397 0 0 0-2.716-.863c-.945-.138-1.68-.4-1.943-.675-.262-.276-.316-.882-.054-1.273.263-.39.908-.694 2.033-.568.855.18 1.41.602 2.042 1.063 0 0 .643.27 1.072-.266.509-.705-.013-1.24-.013-1.24s-.447-.606-1.05-.835c-.604-.23-1.455-.527-2.552-.527-.944 0-1.9.35-2.795.904z"/><path fill="#717171" d="M8.128.845A7.373 7.373 0 0 1 9.353.744c4.134 0 7.486 3.376 7.486 7.54 0 .066 0 .133-.003.199l.049.105c.636.822 1.046 1.855 1.046 2.977 0 2.673-2.271 4.84-4.925 4.84-1.533.018-2.382-.636-2.382-.636l-.071-.04s-.835.096-1.2.096c-4.135 0-7.486-3.376-7.486-7.54 0-.107.044-.232.044-.232C1.274 7.231.679 6.2.679 5.077c0-2.674 2.367-4.889 5.02-4.889.867 0 1.68.28 2.383.684zM6.76 3.919c-.895.554-1.486 1.398-1.486 2.313 0 1.012.573 1.724 1.36 2.14a6.97 6.97 0 0 0 2.599.758c1.05.092 1.722.46 1.982.851.26.39.26.782 0 1.173s-.879.628-1.928.628c-1.26-.091-2.207-.582-2.731-1.135 0 0-.551-.593-1.237.013-.817.677-.176 1.295-.176 1.295.525.46.993.9 1.728 1.177.734.276 1.65.413 2.747.413 1.155 0 2.167-.298 3.035-.896.87-.599 1.303-1.311 1.303-2.14 0-1.057-.406-1.828-1.22-2.31a6.397 6.397 0 0 0-2.716-.863c-.945-.138-1.68-.4-1.943-.675-.262-.276-.316-.882-.054-1.273.263-.39.908-.694 2.033-.568.855.18 1.41.602 2.042 1.063 0 0 .643.27 1.072-.266.509-.705-.013-1.24-.013-1.24s-.447-.606-1.05-.835c-.604-.23-1.455-.527-2.552-.527-.944 0-1.9.35-2.795.904z"/><path fill="#000001" fill-opacity=".21" d="M-1 19V-2h20v21zM8.082 1.872c-.702-.404-1.516-.684-2.382-.684-2.654 0-5.021 2.215-5.021 4.889 0 1.122.595 2.154 1.232 2.976 0 0-.044.125-.044.231 0 4.165 3.351 7.541 7.486 7.541.365 0 1.2-.095 1.2-.095l.07.04s.85.653 2.383.635c2.654 0 4.925-2.167 4.925-4.84 0-1.122-.41-2.155-1.046-2.977l-.049-.105c.002-.066.003-.133.003-.199 0-4.164-3.352-7.54-7.486-7.54-.417 0-.827.034-1.225.101zM6.761 4.919c.895-.554 1.85-.904 2.795-.904 1.097 0 1.948.297 2.551.527.604.23 1.051.835 1.051.835s.522.535.013 1.24c-.429.536-1.072.266-1.072.266-.633-.46-1.187-.882-2.042-1.063-1.125-.126-1.77.178-2.033.568-.262.391-.208.997.054 1.273.263.276.998.537 1.943.675.997.092 1.903.379 2.716.863.814.482 1.22 1.253 1.22 2.31 0 .829-.434 1.541-1.303 2.14-.868.598-1.88.896-3.035.896-1.097 0-2.013-.137-2.747-.413-.735-.276-1.203-.717-1.728-1.177 0 0-.641-.618.176-1.295.686-.606 1.237-.013 1.237-.013.524.553 1.47 1.044 2.73 1.135 1.05 0 1.67-.237 1.929-.628.26-.391.26-.782 0-1.173-.26-.39-.933-.759-1.982-.851a6.97 6.97 0 0 1-2.598-.759c-.788-.415-1.361-1.127-1.361-2.14 0-.914.59-1.758 1.486-2.312z" filter="url(#u7jqb)" mask="url(&quot;#u7jqc&quot;)"/></g></g></svg>